<?xml version="1.0" encoding="UTF-8" standalone="no"?>
<!-- Created with Inkscape (http://www.inkscape.org/) -->

<svg
   xmlns:dc="http://purl.org/dc/elements/1.1/"
   xmlns:cc="http://creativecommons.org/ns#"
   xmlns:rdf="http://www.w3.org/1999/02/22-rdf-syntax-ns#"
   xmlns:svg="http://www.w3.org/2000/svg"
   xmlns="http://www.w3.org/2000/svg"
   xmlns:sodipodi="http://sodipodi.sourceforge.net/DTD/sodipodi-0.dtd"
   xmlns:inkscape="http://www.inkscape.org/namespaces/inkscape"
   id="svg2"
   version="1.1"
   inkscape:version="0.91 r13725"
   xml:space="preserve"
   width="1in"
   height="1in"
   viewBox="0 0 90 90.000002"
   sodipodi:docname="icon.svg"
   inkscape:export-filename="./icon.png"
   inkscape:export-xdpi="512"
   inkscape:export-ydpi="512"><metadata
     id="metadata8"><rdf:RDF><cc:Work
         rdf:about=""><dc:format>image/svg+xml</dc:format><dc:type
           rdf:resource="http://purl.org/dc/dcmitype/StillImage" /><dc:title></dc:title><dc:creator><cc:Agent><dc:title>Miro Hrončok</dc:title></cc:Agent></dc:creator></cc:Work></rdf:RDF></metadata><defs
     id="defs6" /><sodipodi:namedview
     pagecolor="#ffffff"
     bordercolor="#666666"
     borderopacity="1"
     objecttolerance="10"
     gridtolerance="10"
     guidetolerance="10"
     inkscape:pageopacity="0"
     inkscape:pageshadow="2"
     inkscape:window-width="1848"
     inkscape:window-height="1056"
     id="namedview4"
     showgrid="false"
     inkscape:zoom="5.0745869"
     inkscape:cx="43.80763"
     inkscape:cy="21.168169"
     inkscape:window-x="72"
     inkscape:window-y="0"
     inkscape:window-maximized="1"
     inkscape:current-layer="g10"
     fit-margin-top="0"
     fit-margin-left="0"
     fit-margin-bottom="0"
     fit-margin-right="0"
     units="in" /><g
     inkscape:groupmode="layer"
     id="layer1"
     inkscape:label="lev_srovnani 1"
     style="display:none;opacity:0.303"
     sodipodi:insensitive="true"
     transform="translate(-38.481257,-654.3301)"><path
       transform="matrix(1.25,0,0,-1.25,0,744.1)"
       d="m 666.86274,478.91472 c -8.65082,4.61554 -16.16773,14.42987 -16.16773,25.96725 0,16.74208 14.43283,29.43705 31.75815,29.43705 13.27228,0 22.50337,-6.35044 28.27354,-13.27524 -10.96303,-5.77017 -19.61977,-19.62273 -19.61977,-32.3177 0,-16.74208 8.65674,-27.13076 16.7332,-35.7875 L 686.48547,437.36 c -12.1147,10.96304 -19.62273,25.39291 -19.62273,41.55472 M 594.72819,103.19038 c -9.23997,0 -13.85552,-5.192851 -14.43283,-9.811362 2.30037,1.154627 5.77017,2.309251 10.95711,2.309251 9.24589,0 16.74208,-5.189896 19.05133,-10.388675 1.15759,9.234051 -4.6185,17.890786 -15.57561,17.890786 m -5.20766,-26.544564 c -10.96007,0 -16.73024,-8.656738 -15.57266,-15.587457 2.30926,2.889527 6.9248,6.930719 16.15885,6.930719 7.49323,0 13.27821,-3.46684 16.74209,-7.505072 0,8.082386 -5.77906,16.16181 -17.32828,16.16181 M 567.01715,45.482744 c 0,4.038232 0.58028,6.341564 2.30926,10.382757 -2.88065,3.46684 -5.19286,9.234051 -5.19286,16.161809 0,6.924799 3.46388,14.42691 10.96303,19.048376 -2.30629,17.313474 11.54034,28.850864 27.12484,28.850864 17.3194,0 25.96725,-12.11766 28.86566,-24.238281 2.30629,-8.653775 5.76425,-11.540341 9.80248,-12.123576 7.50508,-1.148705 19.62273,0 24.23828,1.160548 5.2047,1.157587 7.51099,4.038232 7.51099,12.697928 0,14.423951 -4.03527,33.472331 -7.51099,49.637101 -8.65674,-1.15759 -30.01141,-2.31222 -46.16434,-2.31222 -35.79046,0 -55.97866,16.15885 -59.4455,51.36312 -1.15462,14.43283 -4.04415,28.27946 -12.69793,43.86396 -6.34748,12.12062 -20.77439,28.28243 -20.77439,49.05978 0,15.57562 5.76721,24.81263 23.658,33.47529 12.70089,5.77017 27.70511,12.69201 40.40304,20.19412 -0.58619,-20.19412 11.54331,-47.32784 27.13076,-58.86523 17.3046,-12.69793 33.45753,-16.16181 57.13329,-16.16181 27.13076,0 53.09801,8.08535 66.93873,24.23532 -8.07647,-5.1899 -19.0395,-8.07351 -32.89501,-8.07351 -42.70934,0 -69.83418,32.89798 -69.83418,68.10224 0,25.39882 13.85552,47.90516 36.9362,66.95057 19.04838,15.57562 36.36482,25.38994 49.6371,38.66815 8.66266,8.65673 16.15589,19.04541 16.15589,31.16603 0,14.42987 -9.80248,28.27354 -20.19412,32.3177 5.76721,6.9248 17.32236,13.27524 27.70215,13.27524 17.31348,0 33.46937,-12.69497 33.46937,-29.43705 0,-12.69497 -7.49619,-22.50634 -17.30164,-27.12188 0.57139,-9.81433 -5.77905,-22.50634 -13.28116,-30.58872 -14.43283,-15.58154 -40.9774,-32.3177 -58.29384,-46.17322 -17.31051,-13.84959 -26.54752,-28.27946 -26.54752,-47.90219 0,-25.97022 20.77735,-45.01859 47.32784,-45.01859 24.81263,0 46.17322,19.04837 46.17322,45.5959 0,24.24124 -17.32532,42.13202 -43.86989,54.24968 l 21.94383,15.58154 c 23.658,-13.8496 49.62525,-32.89205 49.62525,-73.86945 0,-56.55893 -45.58406,-106.19899 -119.45943,-106.19899 -23.08957,0 -29.43705,2.88657 -43.86989,8.6597 9.23406,-8.6597 19.05134,-21.35467 19.62273,-36.93621 11.54627,-3.46091 19.62569,-5.18989 44.44424,-5.18989 10.96303,0 25.96429,1.72898 38.08195,5.18989 8.66266,2.3063 13.85848,5.77018 16.74208,9.81137 2.89249,-4.61555 4.62443,-9.81137 4.62443,-14.42691 0,-13.27228 -9.81136,-23.66688 -20.20004,-25.9791 4.03527,-40.97443 7.49619,-81.95183 7.49619,-118.885075 0,-27.705113 -13.8496,-44.438315 -33.47825,-44.438315 1.16647,1.151666 1.74082,2.886566 1.74082,4.615545 0,10.957109 -12.12357,16.155889 -20.77735,16.155889 -17.32532,0 -26.55937,-13.846636 -45.59294,-13.846636 -16.74505,0 -23.67577,13.846636 -36.36778,13.846636 -8.07942,0 -13.85255,-5.19878 -13.85255,-12.117657 0,-3.457958 1.16054,-6.353406 3.4698,-9.231091 -10.97191,0 -23.66985,10.388678 -23.66985,24.818548 M 526.04568,211.11835 c 0,5.77609 1.72898,9.23701 8.65378,10.38868 -8.08239,17.89375 -14.43283,29.43409 -19.04542,36.9362 -1.73194,2.88953 0,4.61851 2.30925,4.61851 3.46092,0 6.34749,-1.15463 8.65378,-4.61851 4.03527,-5.19582 9.23405,-13.27524 13.27524,-20.77735 7.49916,-13.27525 12.12062,-25.96725 12.69794,-44.43536 l -5.77018,0 c -12.12061,0 -20.77439,8.65378 -20.77439,17.88783 m -29.43705,98.11364 c 0,16.16181 10.96599,29.43114 30.58575,39.82574 13.85256,6.91887 25.39587,11.54034 48.48247,23.08364 36.35593,17.89079 50.21145,47.32489 50.21145,87.15062 0,10.38867 -1.73786,19.04837 -3.4698,29.43409 6.35341,-12.70089 11.54923,-27.70511 11.54923,-46.75053 0,-38.09083 -13.27525,-75.03 -51.372,-94.65272 -16.14997,-8.07647 -25.38698,-13.27525 -37.51056,-19.04246 -18.4681,-8.08238 -27.12188,-20.77735 -27.12188,-35.78158 0,-11.54626 2.88953,-17.89375 5.77314,-23.09253 -16.73913,4.62147 -27.1278,19.62865 -27.1278,39.82573 m 21.35466,244.7068 c -11.5433,0 -23.08957,-0.57435 -35.20722,-1.72602 l -15.5845,30.58576 26.55049,0 c 0,-6.9248 5.1899,-12.11766 11.5433,-12.11766 6.35045,0 11.54331,5.19286 11.54331,12.11766 l 23.66392,0 c 0,-7.50211 4.61258,-12.11766 11.54034,-12.11766 6.35045,0 11.53738,6.35045 11.53738,12.11766 l 26.55641,0 -17.88486,-31.74039 c -14.4358,1.72898 -32.90686,2.88065 -54.25857,2.88065 M 465.44555,325.97112 c 0,23.08661 10.96303,38.6711 39.24546,51.94339 17.88487,8.07646 31.16011,10.96303 51.94339,19.62272 40.96555,16.15885 51.36015,46.74461 51.36015,81.95184 0,12.12061 -1.72898,26.55049 -8.07942,38.66814 8.6597,-10.39164 19.04837,-26.54753 19.04837,-58.28791 0,-32.90093 -10.96895,-63.48373 -47.32784,-81.38636 -17.31644,-8.07647 -28.85382,-12.68905 -48.47951,-21.92606 -22.51521,-11.54035 -35.20722,-27.70216 -35.20722,-46.74757 0,-15.00126 6.92479,-26.54457 13.2782,-32.89797 -21.92902,6.3534 -35.78158,27.1278 -35.78158,49.05978 m -34.62695,16.15589 c 0,31.16899 17.3046,49.63709 50.78284,62.33502 18.4681,6.92184 36.36185,12.11766 53.09802,17.30756 40.97739,14.43283 55.40726,35.79046 55.40726,73.87833 0,16.16181 -4.6185,31.74334 -12.12061,40.97739 12.70089,-10.96303 23.08364,-27.70215 23.08364,-56.55893 0,-30.01141 -8.65377,-60.60012 -50.21441,-76.18166 -19.62568,-7.49915 -30.58871,-11.54034 -51.36311,-20.203 -32.32066,-13.8496 -42.70934,-32.3177 -42.70934,-57.13033 0,-23.66688 12.70386,-36.93916 22.51522,-45.01859 -23.6728,4.04119 -48.47951,28.27651 -48.47951,60.59421 m -34.63287,15.00718 c 0,38.09083 28.85678,72.14343 73.30102,82.53211 16.72728,4.03823 31.15419,6.34748 50.77988,11.5433 36.94212,9.81137 48.48542,25.97021 48.48542,47.32192 0,5.77313 -1.15462,10.39164 -4.04119,15.00719 0.57732,-3.46092 0.57732,-6.34453 0.57732,-9.81137 0,-23.08661 -21.35171,-43.85804 -52.52071,-46.74461 -16.73912,-1.15462 -34.62399,-3.46388 -51.94338,-5.19285 -4.0412,-0.58028 -5.77314,1.1487 -5.77314,4.61554 l -0.57435,27.70511 c 0,1.14871 0.57435,2.30334 2.30629,2.30334 1.15759,0 1.7349,-0.57436 2.31222,-1.72602 3.45796,-5.19878 10.39164,-10.3946 20.203,-10.3946 8.07646,0 12.70089,4.62147 12.70089,9.81728 0,5.76722 -5.19878,10.96007 -15.59042,10.96007 -22.51817,0 -34.05556,-15.58153 -58.86818,-15.58153 -27.12484,0 -36.36185,13.2782 -36.36185,25.97317 0,10.38868 5.77313,16.7332 13.2782,20.20004 -2.31221,-2.88656 -2.88657,-5.19582 -2.88657,-9.23405 0,-8.66266 10.38276,-15.58153 28.85974,-15.58153 17.31052,0 28.27355,4.03527 41.54583,4.03527 17.32236,0 27.70216,-5.77017 32.32066,-12.1147 -0.57435,13.27229 -10.38275,24.81263 -23.08365,24.81263 -8.65969,0 -12.11765,-5.1899 -13.27228,-7.50211 -0.58619,-1.7349 -1.72898,-2.31222 -2.88953,-2.31222 -1.16054,0 -2.30333,0.57732 -2.30333,1.7349 l -2.88952,28.85974 c -0.58028,3.46092 1.15758,5.19286 5.76721,5.77314 l 29.44593,2.30333 c 5.18694,-14.42691 8.65082,-22.5093 16.15589,-22.5093 4.03823,0 5.77017,4.62147 5.77017,8.6597 6.34749,1.73194 12.69793,1.73194 19.04838,1.15463 -7.50803,5.19582 -32.32362,2.30925 -39.83165,12.69497 12.1295,0.57731 21.36059,1.15462 31.16899,1.15462 9.81136,0 18.4681,0 26.55345,-1.15462 9.23405,-1.15167 18.4681,-6.34453 18.4681,-16.15589 0,-6.35341 -3.46684,-10.96599 -9.81432,-10.96599 -2.30926,0 -4.03824,0.57435 -6.34749,2.30925 0.57731,-4.62443 5.19878,-7.50803 9.81136,-7.50803 7.49619,0 12.69793,4.6185 12.69793,14.43283 0,5.19286 -1.15462,10.96303 -5.20174,15.5845 12.12654,-9.81433 19.62273,-27.13373 19.62273,-47.32785 0,-35.21018 -12.69201,-53.67828 -51.94338,-67.52788 -20.19116,-6.92184 -36.35594,-11.54626 -56.55302,-19.04542 -32.89797,-12.12061 -52.51774,-34.62695 -52.51774,-66.37029 0,-21.93198 10.96895,-46.75053 34.0526,-58.28792 -35.21018,4.61259 -60.02577,36.35594 -60.02577,71.5602 m -75.03,-253.94381 c -9.23109,0 -13.84663,-5.192851 -14.42691,-9.811362 2.30334,1.154627 5.77314,2.309251 10.96896,2.309251 9.23109,0 16.73024,-5.189896 19.03949,-10.388675 1.15759,9.234051 -4.60962,17.890786 -15.58154,17.890786 m -5.19582,-26.544564 c -10.96599,0 -16.73024,-8.656738 -15.58449,-15.587457 2.31221,2.889527 6.93368,6.930719 16.16477,6.930719 7.49915,0 13.27228,-3.46684 16.7332,-7.505072 0,8.082386 -5.77017,16.16181 -17.31348,16.16181 M 293.45358,45.482744 c 0,4.038232 0.57731,6.341564 2.30629,10.382757 -2.87768,3.46684 -5.19286,9.234051 -5.19286,16.161809 0,6.924799 3.46388,14.42691 10.96599,19.048376 -2.30333,17.313474 11.54331,28.850864 27.12484,28.850864 17.31348,0 25.97614,-12.11766 28.85975,-24.238281 2.30925,-8.653775 5.77313,-11.540341 9.81136,-12.123576 7.49915,-1.148705 19.62273,0 24.24123,1.160548 5.19878,1.157587 7.50212,4.038232 7.50212,12.697928 0.57731,60.597171 -6.92776,99.268271 -6.92776,121.197291 0,23.66392 13.27228,34.05556 27.13076,38.66815 18.46514,6.34748 54.82699,11.5433 72.7237,10.96895 8.07054,0 12.11174,-5.19582 15.57562,-10.38868 6.34748,-9.81136 11.5433,-20.203 17.89078,-33.47825 -4.61258,-2.30629 -6.92775,-6.34748 -6.92775,-12.11765 0,-8.07647 4.6185,-15.00126 10.96895,-18.47106 l -67.53085,-1.72898 c -0.57139,-4.03824 -0.57139,-8.07943 -0.57139,-11.54627 0,-7.49915 5.18694,-12.69497 12.11174,-12.69497 5.2047,0 9.82616,1.7349 13.85847,5.19582 2.30334,-23.66392 -12.12357,-31.16603 -27.1278,-31.74335 0.57732,-21.35762 1.72898,-36.93916 1.72898,-75.604345 0,-27.705113 -13.85255,-44.438315 -33.46936,-44.438315 1.15166,1.151666 1.72602,2.886566 1.72602,4.615545 0,10.957109 -12.11766,16.155889 -20.77144,16.155889 -17.31643,0 -26.55048,-13.846636 -45.59294,-13.846636 -16.74208,0 -23.66688,13.846636 -36.36481,13.846636 -8.07943,0 -13.84664,-5.19878 -13.84664,-12.117657 0,-3.457958 1.15167,-6.353406 3.46388,-9.231091 -10.96895,0 -23.66688,10.388678 -23.66688,24.818548 M 274.98251,509.50047 c 0,8.65674 -7.49619,15.00719 -16.15292,15.00719 3.46388,-2.88361 6.92775,-9.81433 6.92775,-17.31348 0,-3.46684 -0.58323,-8.08238 -2.89544,-13.27524 6.92776,2.30925 12.12061,7.50211 12.12061,15.58153 m -18.4681,-173.71799 c 0,7.50211 -6.35044,14.42691 -14.43283,14.42691 -4.61258,0 -7.49323,-1.7349 -9.22517,-2.88656 10.96599,-2.3063 19.62273,-11.54035 20.203,-23.08661 1.72306,2.88952 3.455,5.77609 3.455,11.54626 m -9.22813,170.25708 c 0,9.81136 -8.07942,16.15588 -15.58746,16.15588 -3.45795,0 -5.77313,-1.15166 -7.50507,-1.72898 9.81433,-4.03823 16.73913,-12.70089 16.16477,-28.85678 5.19286,3.46092 6.92776,9.23702 6.92776,14.42988 m 28.27651,-461.714403 -43.28665,185.838613 -15.5845,10.96303 -7.49915,35.78454 c -1.15759,4.62146 1.14871,6.92775 4.61555,6.92775 2.30629,0 4.03823,-1.15758 6.35044,-3.46387 7.50211,-8.65378 12.11766,-13.8496 20.20004,-20.77736 4.61259,-4.03823 10.38572,-7.50211 16.15589,-10.39164 l 35.7875,-155.243967 c -5.77905,-5.19878 -9.81432,-13.275244 -9.81432,-21.934943 0,-6.347485 1.7349,-12.117656 4.61851,-17.313475 -1.14871,-2.889527 -1.72899,-5.773133 -1.72899,-9.231091 0,-3.4698 0.58028,-6.93368 2.30334,-10.394599 l -12.11766,9.237012 z M 221.31607,327.12574 c -7.50803,0 -12.70089,-4.04415 -13.85552,-8.65673 2.30333,0.57435 5.19286,1.15166 8.65378,1.15166 8.66266,0 16.16181,-4.03823 19.62273,-10.96303 1.73194,10.96303 -4.61851,18.4681 -14.42099,18.4681 m 49.04794,-106.19602 c 6.9248,1.72601 10.39164,6.92479 10.39164,11.54626 0,6.9248 -4.03527,11.54034 -9.22813,14.9983 -8.66562,5.20174 -17.89671,9.81433 -25.97614,16.73913 -8.6597,7.50803 -13.85256,13.85255 -19.04541,20.78327 -4.0412,4.61555 -7.49915,6.34453 -12.69793,6.34453 -6.34749,0 -10.96303,-4.61851 -10.96303,-9.80841 0,-2.88952 0.56843,-5.19286 1.72897,-6.92776 -8.65673,2.88657 -13.85551,12.11766 -13.85551,21.92902 0,9.23702 5.77609,16.16181 11.54626,19.62273 -0.57435,1.7349 -1.15462,4.0412 -1.15462,6.9248 0,12.12062 9.81728,23.66096 25.39586,24.81855 2.8836,8.07646 11.54626,14.43283 23.08364,14.43283 13.84664,0 28.27947,-10.39164 28.27947,-28.85678 0,-9.23997 -2.30629,-11.54626 -2.30629,-18.47402 0,-4.0412 1.15759,-7.49915 6.9248,-13.27821 6.92776,-6.91591 10.3946,-10.95415 14.42691,-10.95415 4.04119,0 6.35044,1.72898 10.96895,5.18398 25.97317,21.9379 48.47951,45.02155 79.64258,61.75771 0.57731,-27.12188 10.97191,-49.05386 33.47529,-65.7989 l -19.62569,-15.00126 c -3.45796,3.46388 -6.91888,4.62146 -11.54035,4.62146 -7.49915,0 -15.00718,-2.88952 -26.54456,-10.39164 -13.27229,-8.65377 -35.21315,-31.16603 -50.78876,-46.17025 -8.65674,-8.65378 -17.89079,-13.27228 -26.54457,-13.27228 -6.93072,0 -12.70385,2.8836 -15.59338,9.23109 m 25.97614,156.41043 c -16.73617,0 -27.12485,-1.16054 -38.66223,-1.16054 -17.89671,0 -31.17195,7.50211 -35.21315,21.93198 6.9248,0 12.12358,5.77313 12.12358,12.70089 0,13.84367 -21.36059,27.70215 -21.36059,54.24968 0,8.65674 1.16055,16.7332 1.16055,23.08661 0,6.92183 -5.77313,11.5433 -12.12358,11.5433 -5.19878,0 -9.80544,-2.30925 -12.11765,-4.62147 -1.15759,16.16477 12.11765,28.28243 28.85974,27.12484 2.30925,5.19582 10.96303,11.54627 20.77439,11.54627 6.9248,0 10.38276,-1.73194 13.8496,-4.04119 2.8836,1.15758 6.34748,1.72897 10.96895,1.72897 13.26932,0 27.70215,-10.96303 27.70215,-27.70215 0,-15.57857 -9.23997,-23.08661 -18.47106,-29.43409 -4.61555,-3.46092 -5.77609,-6.92184 -5.19582,-12.12062 0.58027,-6.34452 4.04119,-17.31051 5.77017,-23.08365 1.72898,-5.19582 5.77905,-7.49915 12.11766,-6.92479 31.74335,2.30333 77.34517,5.77313 105.04732,6.92479 25.97022,1.15167 44.43536,1.73194 65.78411,2.88657 -40.39417,-9.81136 -63.47781,-36.9362 -69.82826,-75.60731 l -18.46218,-9.81136 c -4.04711,15.58449 -24.82447,20.78327 -72.7237,20.78327 m -120.62294,54.24968 c -32.32362,0.57436 -58.28792,25.97022 -58.28792,57.70764 0,34.05556 26.54161,58.29383 60.01689,58.29383 15.58746,0 29.43706,-6.92775 38.66815,-18.46514 -13.26932,1.73194 -25.96725,-7.50211 -30.01141,-17.89079 -3.45796,1.15463 -6.34748,1.15463 -8.65674,1.15463 -13.26932,0 -23.66096,-10.39164 -23.66096,-23.09253 0,-12.69201 10.39164,-23.65504 23.66096,-23.65504 13.27229,0 21.35467,10.38276 21.35467,23.65504 l 0,2.31221 c 0.58028,0.57732 1.7349,0.57732 3.46388,0.57732 2.30925,0 4.61851,-1.15463 4.61851,-5.19582 0,-4.61555 -1.73194,-13.27228 -1.73194,-21.92902 0,-8.07943 1.73194,-13.85256 4.04119,-19.62569 l 19.61977,-81.9548 c -2.88657,-2.30925 -5.77313,-5.18989 -8.07647,-8.65377 -10.97191,-2.30629 -20.20004,-9.23109 -24.24123,-19.04542 l -20.77735,95.80735 z m -28.85975,0.57436 c 6.34749,-3.46092 13.85552,-5.77314 22.51226,-7.50804 L 176.87183,390.03216 142.24192,241.1268 126.66038,230.16377 83.373735,44.325157 48.16947,17.203278 146.85746,432.16419 Z"
       style="fill:#000000;fill-opacity:1;fill-rule:nonzero;stroke:none"
       id="path6377"
       inkscape:connector-curvature="0" /></g><g
     id="g10"
     inkscape:groupmode="layer"
     inkscape:label="lev_srovnani"
     transform="matrix(1.25,0,0,-1.25,-38.481257,89.769897)"><g
       id="g4138"
       transform="matrix(0.09,0,0,0.09,28.014355,-0.16751465)"><rect
         ry="2.2487638"
         transform="scale(1,-1)"
         y="-799.81592"
         x="30.785006"
         height="800"
         width="800"
         id="rect4136"
         style="opacity:1;fill:#0072bb;fill-opacity:1;stroke:none;stroke-width:5.5999999;stroke-linecap:round;stroke-linejoin:round;stroke-miterlimit:4;stroke-dasharray:none;stroke-opacity:1" /><path
         sodipodi:nodetypes="ccscccsccsccsscccccssscssssccsscccsccccscscssscssssscsccccscsccscsccscsscsscscsccscsccscsscccscsscsccsscscccsccscscccscscscssssscscsccsccssccssscccsssccsssscssccccccccsscscscscssccscsccscsccsccsccscsccsccssccssscssssssscsssssszczzssssszczsccsscccscscscsscccscsccsccccscsssssccsscscsccsssscsccccssscsccccsccccscscscssssscsccssccscccccsccsscccsscscsscscsscscsscscs"
         inkscape:connector-curvature="0"
         id="path104"
         d="m 481.25132,687.4 15.80935,-31.02749 c 12.29259,1.16829 24.00616,1.7515 35.7161,1.7515 21.65997,0 40.39692,-1.16892 55.04111,-2.92286 l 18.14257,32.19885 -26.93962,0 c 0,-5.85048 -5.26193,-12.29213 -11.70407,-12.29213 -7.02779,0 -11.70724,4.6817 -11.70724,12.29213 l -24.0041,0 c 0,-7.02477 -5.26828,-12.29213 -11.7104,-12.29213 -6.44514,0 -11.71041,5.26736 -11.71041,12.29213 z M 187.34367,651.68391 c -33.95856,0 -60.88362,-24.58812 -60.88362,-59.13534 0,-32.19557 26.33871,-57.95824 59.12895,-58.54089 l 23.79173,-93.11895 c 4.09952,9.95602 10.74664,12.91025 21.87694,15.24983 2.33662,3.51389 3.90813,6.43547 6.83636,8.77804 l -18.54674,83.13786 c -2.3426,5.85646 -4.09897,11.71382 -4.09897,19.90989 0,8.7817 1.75624,17.56251 1.75624,22.24471 0,4.09952 -2.34284,5.2703 -4.68542,5.2703 -1.75394,0 -2.92382,7.7e-4 -3.51249,-0.58489 l 0,-2.3459 c 0,-13.46388 -8.19908,-23.99616 -21.66298,-23.99616 -13.46087,0 -24.00252,11.12095 -24.00252,23.99616 0,12.88427 10.54165,23.42558 24.00252,23.42558 2.34259,0 5.27334,-7e-5 8.78123,-1.17137 4.10254,10.53867 16.9833,19.90744 30.44419,18.15051 -9.36435,11.70394 -23.41293,18.73062 -39.22542,18.73062 z m 344.84346,0 c -9.94999,0 -19.3141,-0.58573 -31.61872,-1.17137 7.61643,-10.53565 32.78986,-7.60775 40.40629,-12.87858 -6.44215,0.58564 -12.88431,0.58717 -19.32344,-1.16979 0,-4.09652 -1.7571,-8.78595 -5.85361,-8.78595 -7.61342,0 -11.1261,8.19914 -16.38791,22.83432 l -29.87199,-2.33637 c -4.67618,-0.58867 -6.43909,-2.34589 -5.85044,-5.85677 l 2.93077,-29.27602 c 0,-1.17429 1.16066,-1.75941 2.33796,-1.75941 1.1773,0 2.3361,0.58593 2.93077,2.34588 1.1713,2.3456 4.67876,7.60986 13.46345,7.60986 12.88427,0 22.835,-11.70681 23.41765,-25.17071 -4.68516,6.43612 -15.21605,12.28894 -32.78849,12.28894 -13.46388,0 -24.58465,-4.09263 -42.14509,-4.09263 -18.74372,0 -29.276,7.0185 -29.276,15.80621 0,4.09654 0.58202,6.43945 2.9276,9.36768 -7.61342,-3.51688 -13.46981,-9.95296 -13.46981,-20.4916 0,-12.87826 9.371,-26.34841 36.88743,-26.34841 25.17085,0 36.8738,15.80618 59.71705,15.80618 10.54164,0 15.81571,-5.26712 15.81571,-11.11758 0,-5.27082 -4.69032,-9.96051 -12.88335,-9.96051 -9.953,0 -16.98692,5.27155 -20.49481,10.54541 -0.58563,1.16826 -1.17156,1.75147 -2.34587,1.75147 -1.75694,0 -2.33954,-1.17107 -2.33954,-2.33637 l 0.5833,-28.10625 c 0,-3.51688 1.75565,-5.27091 5.8552,-4.68224 17.56941,1.75392 35.71286,4.09744 52.69362,5.26873 31.619,2.92823 53.27854,23.99866 53.27854,47.41855 0,3.5169 7.6e-4,6.44329 -0.5849,9.95417 2.92826,-4.68218 4.09897,-9.36799 4.09897,-15.22448 0,-21.65995 -11.70888,-38.05201 -49.18431,-48.00504 -19.90904,-5.27084 -34.54401,-7.61386 -51.51277,-11.7104 -45.08587,-10.53866 -74.35982,-45.08198 -74.35982,-83.72271 0,-35.7125 25.17308,-67.91486 60.89158,-72.59405 -23.41691,11.70396 -34.54316,36.88038 -34.54316,59.12898 0,32.2016 19.90245,55.03289 53.27537,67.32848 20.48865,7.60742 36.88689,12.29847 57.36955,19.32025 39.81802,14.04954 52.69366,32.78452 52.69366,68.50302 0,20.48564 -7.60515,38.05536 -19.90674,48.01137 4.10555,-4.68817 5.27664,-10.54153 5.27664,-15.80937 0,-9.95601 -5.27575,-14.64116 -12.88018,-14.64116 -4.67916,0 -9.36851,2.925 -9.95414,7.61619 2.34259,-1.75995 4.09748,-2.34271 6.44007,-2.34271 6.43911,0 9.95575,4.68038 9.95575,11.12551 0,9.953 -9.36802,15.21963 -18.73538,16.38791 -8.20207,1.1713 -16.98346,1.17137 -26.93646,1.17137 z m 61.47802,-11.12394 c 7.61043,-9.36737 12.2953,-25.17458 12.2953,-41.56973 0,-38.63772 -14.63715,-60.30346 -56.20611,-74.94466 -16.9778,-5.26483 -35.1303,-10.5359 -53.86501,-17.55768 -33.96157,-12.88123 -51.51594,-31.61531 -51.51594,-63.23428 0,-32.78425 25.16501,-57.36899 49.17957,-61.46849 -9.953,8.19604 -22.84068,21.6601 -22.84068,45.66865 0,25.17084 10.53868,43.9049 43.32594,57.95444 21.07431,8.78773 32.19499,12.88739 52.104,20.49481 42.16065,15.80647 50.94057,46.83637 50.94057,77.28105 0,29.27337 -10.53338,46.25458 -23.41764,57.37589 z m 105.97535,-2.33954 c -17.57544,0 -32.21628,-12.87872 -32.21628,-29.86249 0,-11.70393 7.62488,-21.6599 16.40059,-26.34205 0,-16.39513 7.61715,-31.03329 19.90672,-42.1546 l 21.66298,15.80303 c -8.19306,8.78171 -16.97597,19.32035 -16.97597,36.30414 0,12.87824 8.78229,26.93185 19.90357,32.78533 -5.85347,7.02477 -15.21771,13.46664 -28.68161,13.46664 z m 67.32214,0 c -10.52963,0 -22.25102,-6.44187 -28.10149,-13.46664 10.54168,-4.10257 20.48528,-18.14714 20.48528,-32.78533 0,-12.29559 -7.60177,-22.83385 -16.38948,-31.61555 -13.4639,-13.46991 -31.02915,-23.42493 -50.35253,-39.22541 -23.41387,-19.32036 -37.47073,-42.15262 -37.47073,-67.91811 0,-35.7125 27.51663,-69.08472 70.84255,-69.08472 14.05554,0 25.17714,2.92515 33.37019,8.19 -14.04052,-16.38315 -40.38298,-24.58585 -67.90542,-24.58585 -24.01757,0 -40.40319,3.51459 -57.95761,16.39585 -15.8125,11.70395 -28.1176,39.22978 -27.52295,59.71544 -12.88123,-7.61043 -28.10216,-14.6334 -40.9864,-20.48687 -18.14909,-8.78773 -23.99935,-18.15779 -23.99935,-33.95827 0,-21.07729 14.63581,-37.47201 21.07492,-49.76763 8.77871,-15.80946 11.71045,-29.8561 12.88177,-44.4973 3.51688,-35.7125 23.99634,-52.10401 60.30348,-52.10401 16.38614,0 38.0488,1.17002 46.83051,2.3443 3.52591,-16.39813 7.61937,-35.72032 7.61937,-50.35251 0,-8.78471 -2.33951,-11.70746 -7.61937,-12.88177 -4.68218,-1.17727 -16.97555,-2.34297 -24.58899,-1.17768 -4.09652,0.59164 -7.60346,3.51976 -9.94304,12.29845 -2.94028,12.2956 -11.71293,24.58899 -29.28236,24.58899 -15.80949,0 -29.85619,-11.70465 -27.51659,-29.26808 -7.60742,-4.68818 -11.12234,-12.29866 -11.12234,-19.32343 0,-7.02775 2.34648,-12.87734 5.26871,-16.39424 -1.75392,-4.09953 -2.34271,-6.43617 -2.34271,-10.53271 0,-14.63819 12.88173,-25.17705 24.01203,-25.17705 -2.34259,2.91924 -3.52041,5.85664 -3.52041,9.36453 0,7.01877 5.85707,12.29211 14.05311,12.29211 12.87526,0 19.90542,-14.04677 36.89223,-14.04677 19.30834,0 28.67651,14.04677 46.25194,14.04677 8.77872,0 21.07652,-5.27419 21.07652,-16.3895 0,-1.75392 -0.58245,-3.51396 -1.76575,-4.68224 19.91203,0 33.96143,16.97552 33.96143,45.0806 0,37.46645 -3.51157,79.03469 -7.6051,120.60066 10.53866,2.3456 20.49162,12.89087 20.49162,26.35475 0,4.68218 -1.75595,9.95264 -4.69018,14.63482 -2.92524,-4.09953 -8.19618,-7.61297 -16.98388,-9.95255 -12.29261,-3.51088 -27.51131,-5.26557 -38.63262,-5.26557 -25.17685,0 -33.3724,1.75469 -45.08537,5.26557 -0.57964,15.80647 -10.53776,28.68445 -19.90515,37.46916 14.6412,-5.85648 21.07917,-8.7844 44.50207,-8.7844 74.94188,0 121.18396,50.35615 121.18396,107.73159 2e-5,41.56898 -26.34188,60.88721 -50.34141,74.93675 L 734.17257,509.9988 c 26.92779,-12.29258 44.50365,-30.44039 44.50365,-55.0316 0,-26.93078 -21.66919,-46.25514 -46.84004,-46.25514 -26.93378,0 -48.01137,19.32353 -48.01137,45.66867 0,19.90602 9.37127,34.54515 26.93169,48.5947 17.56644,14.05554 44.49414,31.03196 59.13531,46.83843 7.61043,8.19906 14.05265,21.07465 13.47299,31.03066 9.94702,4.68218 17.55136,14.63518 17.55136,27.51342 0,16.98377 -16.39009,29.86249 -33.95352,29.86249 z m -516.38469,-0.58647 c -9.95301,0 -18.73235,-6.44118 -21.07492,-11.712 -16.9838,1.17431 -30.45031,-11.11846 -29.27602,-27.51659 2.34561,2.3456 7.0183,4.6886 12.29213,4.6886 6.44213,0 12.30005,-4.68865 12.30005,-11.7104 0,-6.44514 -1.1777,-14.63752 -1.1777,-23.41922 0,-26.9308 21.66932,-40.98966 21.66932,-55.03318 0,-7.02776 -5.27528,-12.88494 -12.30005,-12.88494 4.09953,-14.63819 17.56734,-22.24786 35.72243,-22.24786 11.70394,0 22.24287,1.17611 39.22066,1.17611 48.59072,0 69.66777,-5.27336 73.77333,-21.08285 l 18.72901,9.95257 c 6.44215,39.2294 29.8589,66.74633 70.83622,76.69933 -21.65696,-1.17129 -40.38895,-1.75929 -66.73408,-2.92758 -28.10207,-1.16831 -74.36179,-4.6884 -106.56339,-7.02497 -6.43012,-0.58265 -10.53978,1.75413 -12.29371,7.02497 -1.75394,5.85647 -5.26498,16.97993 -5.85363,23.41603 -0.58865,5.27386 0.58973,8.78442 5.27191,12.2953 9.36435,6.43911 18.73697,14.05584 18.73697,29.8593 0,16.98078 -14.64059,28.10308 -28.10148,28.10308 -4.6882,0 -8.20189,-0.58038 -11.12711,-1.75466 -3.5169,2.34259 -7.02517,4.09896 -14.04994,4.09896 z m 19.32342,-9.3661 c 8.7817,0 16.38633,-6.44278 16.38633,-15.22448 0,-8.19605 -5.26752,-13.46361 -12.2953,-15.80621 2.3456,5.26784 2.93713,9.94977 2.93713,13.46667 0,7.60742 -3.51427,14.63877 -7.02816,17.56402 z m -27.52291,-2.3459 c 7.61643,0 15.81252,-6.43648 15.81252,-16.38948 0,-5.26784 -1.76033,-11.12711 -7.02814,-14.63801 0.58265,16.38912 -6.4414,25.17631 -16.39741,29.27285 1.75693,0.58566 4.10514,1.75464 7.61303,1.75464 z m 373.53297,-4.09737 c 6.44212,-12.29259 8.19634,-26.92983 8.19634,-39.2254 0,-35.71551 -10.54545,-66.74256 -52.10241,-83.13467 -21.08332,-8.78471 -34.55057,-11.71368 -52.69364,-19.90674 -28.69074,-13.46388 -39.81189,-29.27375 -39.81189,-52.69364 0,-22.2486 14.05221,-43.3225 36.29782,-49.76761 -6.44514,6.44511 -13.46982,18.15554 -13.46982,33.37336 0,19.32037 12.87584,35.71479 35.71608,47.42174 19.90903,9.37037 31.61315,14.05006 49.17957,22.24311 36.88379,18.16109 48.01139,49.18499 48.01139,82.56087 0,32.19861 -10.5387,48.58733 -19.32344,59.12898 z m 22.82801,-29.85613 c 1.75693,-10.53567 3.52041,-19.31908 3.52041,-29.85772 0,-40.40068 -14.05662,-70.26067 -50.93741,-88.40974 -23.41989,-11.70995 -35.13019,-16.3973 -49.18274,-23.41605 -19.90299,-10.54466 -31.02589,-24.00638 -31.02589,-40.40153 0,-20.48865 10.53738,-35.71175 27.51816,-40.39993 -2.92524,5.27384 -5.8552,11.71261 -5.8552,23.42556 0,15.22083 8.77871,28.09874 27.51342,36.29782 12.29863,5.85046 21.66777,11.12403 38.05089,19.31708 38.64675,19.906 52.11351,57.37885 52.11351,96.01958 0,19.32039 -5.27002,34.54067 -11.71515,47.42493 z m -482.0048,-57.95761 c -2.5553,-17.23299 -5.89424,-37.15533 -8.5704,-51.10226 -9.92976,-51.7493 -19.84395,-103.50185 -29.79435,-155.24683 -4.33277,-22.53137 -12.44811,-44.14188 -16.67636,-66.69447 -0.82972,-4.42587 -3.418881,-7.36496 -8.096472,-9.27574 -12.693811,-5.18561 -21.000129,-13.63445 -26.292932,-24.3148 -7.652004,-15.44107 -9.174031,-32.32562 -10.913122,-49.0575 -1.391147,-13.38468 -1.239614,-27.00747 -1.551781,-40.54576 -0.104498,-4.53385 -0.119106,-9.12991 1.117474,-14.16408 2.687302,1.56129 2.655728,3.67385 3.05282,5.5271 1.826756,8.5253 3.798731,17.02609 5.24179,25.62721 2.973401,17.7217 7.173022,34.94326 11.058948,52.44954 1.015157,4.57343 1.355819,6.66851 4.124315,6.16746 3.622905,-0.65568 2.232433,-4.91252 1.974964,-7.41966 -1.402945,-13.66137 -3.101203,-27.27831 -4.790023,-40.89606 -1.689044,-13.61962 -4.533542,-27.04469 -5.485888,-40.78512 -0.106745,-1.54088 -0.200905,-2.08914 0.895558,-4.62201 1.920197,1.94123 1.862915,2.63628 2.200049,4.22892 3.585848,16.93975 6.972566,33.92496 10.594528,50.85657 2.214702,10.35306 4.663547,20.65425 7.202506,30.93239 0.46078,1.86536 0.383069,5.07778 3.701111,4.52534 2.942726,-0.48995 2.013661,-3.06945 2.076585,-4.9996 0.193489,-5.93251 -0.772924,-8.58381 -1.702034,-17.22673 -2.330144,-21.67658 -9.297271,-63.32516 -9.529841,-65.29736 -0.232592,-1.97222 -0.661055,-4.37765 0.662539,-6.68419 1.855274,0.99367 1.888556,3.3353 2.052629,4.08867 0.16405,0.75335 0,0 2.486981,12.40385 2.48698,12.40384 9.614026,42.00329 14.428766,63.00287 0.66753,2.91143 1.18002,5.86417 2.0178,8.7289 0.36482,1.2475 1.02241,2.89881 3.17644,2.46635 2.40889,-0.48364 2.77564,-4.53269 2.64705,-6.03274 -0.85854,-10.01493 -2.31273,-17.6259 -3.47128,-27.53243 -1.65435,-14.14539 -5.68358,-31.99258 -7.40063,-41.96439 -1.71704,-9.97181 -2.5795,-11.85482 -1.73405,-18.92242 4.00372,2.24675 4.91218,5.49294 5.52074,8.0093 0.60858,2.51635 14.70756,52.02869 19.95746,78.56811 3.254,16.44977 2.36437,32.62828 -8.8557,48.45995 -2.10412,2.96911 -2.54521,6.05703 -1.65163,9.22185 1.65882,5.87572 3.11417,11.80389 4.75517,17.68449 10.34843,37.08376 21.01199,74.08778 31.00214,111.26309 8.24665,30.68751 25.64266,75.72135 34.53203,106.22896 -4.27256,19.95391 -3.66524,17.62664 -7.98869,34.96002 -18.00272,5.6661 -8.18975,2.58146 -21.97521,7.38321 z M 260.52735,463.7516 c -11.70393,0 -20.49083,-6.44812 -23.41605,-14.64118 -15.80348,-1.17431 -25.76352,-12.88146 -25.76352,-25.17705 0,-2.92522 0.58872,-5.26503 1.17136,-7.02497 -5.85347,-3.51088 -11.71198,-10.53478 -11.71198,-19.90515 0,-9.953 5.27299,-19.31803 14.05469,-22.24628 -1.1773,1.75994 -1.75307,4.09692 -1.75307,7.02816 0,5.2648 4.68164,9.94938 11.12077,9.94938 5.27382,0 8.7822,-1.75313 12.88175,-6.43533 5.26781,-7.03077 10.53554,-13.468 19.32025,-21.08443 8.19609,-7.02477 17.56087,-11.70389 26.35159,-16.98071 5.26783,-3.50789 9.36134,-8.1902 9.36134,-15.21497 0,-4.68818 -3.51744,-9.96105 -10.54221,-11.71198 2.93124,-6.43914 8.78811,-9.36451 15.81888,-9.36451 8.77871,0 18.14522,4.68476 26.92695,13.46345 15.80047,15.22086 38.05837,38.05817 51.52228,46.83687 11.70393,7.61042 19.32113,10.54223 26.92852,10.54223 4.6882,0 8.19778,-1.17474 11.70567,-4.6886 l 19.90989,15.21814 c -22.82824,16.98678 -33.37261,39.2349 -33.95827,66.74832 -31.61294,-16.97777 -54.44538,-40.39476 -80.79353,-62.64938 -4.68518,-3.50488 -7.02758,-5.25923 -11.1271,-5.25923 -4.09052,0 -7.60706,4.0971 -14.63482,11.11284 -5.85049,5.8625 -7.025,9.37028 -7.025,13.46981 0,7.02778 2.33956,9.36835 2.33956,18.74172 0,18.73174 -14.64142,29.27285 -28.68795,29.27285 z m -7.6162,-12.29845 c 8.19907,0 14.64117,-7.02443 14.64117,-14.63484 0,-5.85348 -1.75662,-8.78234 -3.50456,-11.71358 -0.58865,11.71295 -9.37049,21.07962 -20.49479,23.41922 1.75696,1.16829 4.67901,2.9292 9.35818,2.9292 z M 231.84573,428.0355 c 9.94399,0 16.38704,-7.61249 14.63008,-18.73378 -3.51088,7.02477 -11.11899,11.12075 -19.90672,11.12075 -3.51088,0 -6.44147,-0.58553 -8.77806,-1.1682 1.17129,4.67919 6.4383,8.78123 14.0547,8.78123 z m -7.62094,-43.86328 c -0.37462,-0.0229 -0.73511,-0.11506 -1.07943,-0.28057 3.36946,-13.4857 6.80532,-26.95437 10.39955,-40.3825 3.64012,-13.59907 7.46996,-27.11734 9.38989,-41.07357 2.40396,-17.47424 0.85566,-35.32031 1.37898,-52.97421 0.20945,-7.06484 0.26302,-14.14676 0.65149,-21.19223 0.53885,-9.77286 4.83463,-18.52607 8.48005,-27.43099 7.90046,-19.29834 20.11302,-36.61882 31.25256,-54.42134 4.16375,-6.65433 9.97893,-12.33514 15.61916,-18.07441 0.0589,-0.0598 0.12293,-0.11506 0.18225,-0.17439 -3.21682,6.62024 -5.01591,14.00444 -2.0875,24.10873 -6.05971,11.18178 -8.3443,26.33441 6.26256,40.18914 -2.02771,7.80704 -4.0786,15.6075 -6.22769,23.38274 -8.24903,29.84417 -16.73767,59.62295 -28.31863,88.51118 -4.55784,11.36916 -5.34405,23.71613 -8.31839,35.51004 -1.19651,4.74441 -2.33889,9.50043 -3.43641,14.2655 -5.19435,3.56832 -9.25136,7.17923 -12.82785,10.39958 -8.12634,7.31705 -15.81801,19.33387 -20.94179,19.63728 -0.1281,0.007 -0.25394,0.007 -0.37883,0 z m 278.59758,-15.81254 c -19.08043,-0.12248 -52.59841,-5.13163 -70.15939,-11.1683 -14.05855,-4.67919 -27.52135,-15.22147 -27.52135,-39.22702 0,-22.24559 7.6122,-61.47454 7.02657,-122.94654 0,-8.78471 -2.33603,-11.70746 -7.60987,-12.88177 -4.68517,-1.17727 -16.98317,-2.34297 -24.59058,-1.17768 -4.09652,0.59164 -7.61156,3.51976 -9.95417,12.29845 -2.92522,12.2956 -11.71257,24.58899 -29.276,24.58899 -15.80647,0 -29.85316,-11.70465 -27.51659,-29.26808 -7.61041,-4.68818 -11.12394,-12.29866 -11.12394,-19.32343 0,-7.02775 2.34792,-12.87734 5.26717,-16.39424 -1.75395,-4.09953 -2.33956,-6.43617 -2.33956,-10.53271 0,-14.63819 12.88156,-25.17705 24.00887,-25.17705 -2.3456,2.91924 -3.51409,5.85664 -3.51409,9.36453 0,7.01877 5.85071,12.29211 14.04678,12.29211 12.88125,0 19.90685,-14.04677 36.89062,-14.04677 19.31738,0 28.68396,14.04677 46.2504,14.04677 8.77872,0 21.07175,-5.27419 21.07175,-16.3895 0,-1.75392 -0.58321,-3.51396 -1.7515,-4.68224 19.90003,0 33.95193,16.97552 33.95193,45.0806 0,39.22338 -1.16741,55.03021 -1.75307,76.69616 15.22084,0.58566 29.85635,8.1949 27.51976,32.20043 -4.09052,-3.51088 -8.77962,-5.27031 -14.05945,-5.27031 -7.02477,0 -12.28578,5.27119 -12.28578,12.87858 0,3.5169 -8.3e-4,7.61547 0.57854,11.712 l 68.50616,1.75467 c -6.4421,3.51989 -11.12709,10.54547 -11.12709,18.73855 0,5.85347 2.34898,9.95253 7.02814,12.29211 -6.43911,13.46689 -11.70977,24.00843 -18.14891,33.96143 -3.51386,5.26784 -7.61438,10.53906 -15.80141,10.53906 -1.13472,0.0364 -2.34192,0.0492 -3.61394,0.0411 z m 29.9544,-5.31312 c -2.34257,0 -4.09967,-1.75417 -2.34271,-4.68541 4.67919,-7.61043 11.12117,-19.31711 19.32028,-37.46919 -7.02477,-1.16829 -8.77964,-4.67797 -8.77964,-10.53745 0,-9.36734 8.77932,-18.14731 21.07492,-18.14731 l 5.8536,0 c -0.58566,18.73473 -5.27433,31.61054 -12.88175,45.07743 -4.09952,7.61041 -9.37313,15.80567 -13.46664,21.07652 -2.3396,3.51389 -5.26716,4.68541 -8.77806,4.68541 z M 333.12771,200.86826 c 11.13032,0 16.98049,-8.78154 15.80621,-18.14891 -2.3426,5.27384 -9.94956,10.53747 -19.31392,10.53747 -5.27084,0 -8.79211,-1.17141 -11.1287,-2.3427 0.58867,4.68518 5.27208,9.95414 14.63641,9.95414 z m 277.52135,0 c 11.11528,0 16.97415,-8.78154 15.79984,-18.14891 -2.34259,5.27384 -9.94565,10.53747 -19.32502,10.53747 -5.26181,0 -8.78242,-1.17141 -11.116,-2.3427 0.58563,4.68518 5.26781,9.95414 14.64118,9.95414 z M 327.85583,173.93974 c 11.70996,0 17.56402,-8.19519 17.56402,-16.39425 -3.51088,4.09652 -9.36696,7.61304 -16.97438,7.61304 -9.36435,0 -14.05343,-4.10007 -16.39901,-7.03133 -1.16229,7.03079 4.68505,15.81254 15.80937,15.81254 z m 277.51022,0 c 11.71596,0 17.57831,-8.19519 17.57831,-16.39425 -3.51389,4.09652 -9.38249,7.61304 -16.98391,7.61304 -9.36736,0 -14.04848,-4.10009 -16.39108,-7.03133 -1.17428,7.03077 4.67838,15.81254 15.79668,15.81254 z"
         style="fill:#c5e7ff;fill-opacity:1;fill-rule:nonzero;stroke:none" /></g></g></svg>